<svg width="280" height="auto" viewBox="0 0 191 164" fill="none" xmlns="http://www.w3.org/2000/svg"><title>illustration birthday</title><mask id="mask0_748_19766" maskUnits="userSpaceOnUse" x="12" y="0" width="168" height="164" style="mask-type: alpha;"><ellipse cx="95.6171" cy="82" rx="83.3872" ry="82" fill="#C4C4C4"></ellipse></mask><g mask="url(#mask0_748_19766)"><path d="M167.805 123.276C175.455 111.014 179.862 96.6374 179.862 81.2796C179.877 36.3865 142.315 0 95.9697 0C49.6248 0 12.0623 36.3865 12.0623 81.2796C12.0623 96.6527 16.4688 111.03 24.119 123.276H167.805Z" fill="url(#paint0_linear_748_19766)"></path><path d="M150.301 50.2421L146.583 48.7094L142.727 50.2421L144.349 46.8548C144.349 46.8548 143.783 45.5214 142.727 43.0537C145.221 44.1879 146.552 44.7857 146.552 44.7857C148.985 43.6668 150.301 43.0537 150.301 43.0537L148.801 46.7782C148.786 46.7782 150.301 50.2421 150.301 50.2421Z" fill="#FFD55D"></path><path d="M37.0784 64.0367L38.685 60.5268L37.0784 56.8789L40.6128 58.4116C40.6128 58.4116 42.0052 57.8752 44.5909 56.8789C43.4128 59.2393 42.7855 60.4961 42.7855 60.4961C43.9636 62.7799 44.5909 64.0213 44.5909 64.0213L40.6893 62.6112C40.6893 62.6266 37.0784 64.0367 37.0784 64.0367Z" fill="#53E3AC"></path><path d="M75.0533 18.5917L73.615 15.1278L69.8664 13.6717L73.4161 12.4149C73.4161 12.4149 73.9975 11.1274 75.0533 8.75171C75.956 11.1427 76.4303 12.4302 76.4303 12.4302C78.8937 13.2426 80.2401 13.6717 80.2401 13.6717L76.5221 15.2504L75.0533 18.5917Z" fill="#FFD55D"></path><path d="M8.84825 116.364L7.30291 112.639L3.2789 111.076L7.0887 109.712C7.0887 109.712 7.70072 108.332 8.84825 105.788C9.81217 108.363 10.3171 109.727 10.3171 109.727C12.9641 110.601 14.4023 111.06 14.4023 111.06L10.4089 112.746C10.4242 112.777 8.84825 116.364 8.84825 116.364Z" fill="#FFD55D"></path><path d="M184.85 108.087L183.212 104.117L178.928 102.446L182.983 101.006C182.983 101.006 183.641 99.5342 184.865 96.8213C185.89 99.5648 186.441 101.021 186.441 101.021C189.271 101.941 190.801 102.446 190.801 102.446L186.548 104.255C186.533 104.27 184.85 108.087 184.85 108.087Z" fill="#FFD55D"></path><path d="M103.833 34.3633C104.924 34.3633 105.807 33.5262 105.807 32.4934C105.807 31.4607 104.924 30.6235 103.833 30.6235C102.743 30.6235 101.86 31.4607 101.86 32.4934C101.86 33.5262 102.743 34.3633 103.833 34.3633Z" fill="url(#paint1_linear_748_19766)"></path><path d="M69.2852 65.554C70.3752 65.554 71.2589 64.7168 71.2589 63.6841C71.2589 62.6514 70.3752 61.8142 69.2852 61.8142C68.1951 61.8142 67.3114 62.6514 67.3114 63.6841C67.3114 64.7168 68.1951 65.554 69.2852 65.554Z" fill="url(#paint2_linear_748_19766)"></path><path d="M144.563 64.4044C145.653 64.4044 146.537 63.5672 146.537 62.5345C146.537 61.5017 145.653 60.6646 144.563 60.6646C143.473 60.6646 142.59 61.5017 142.59 62.5345C142.59 63.5672 143.473 64.4044 144.563 64.4044Z" fill="url(#paint3_linear_748_19766)"></path><path d="M25.3122 50.6102C26.4023 50.6102 27.2859 49.773 27.2859 48.7403C27.2859 47.7075 26.4023 46.8704 25.3122 46.8704C24.2221 46.8704 23.3384 47.7075 23.3384 48.7403C23.3384 49.773 24.2221 50.6102 25.3122 50.6102Z" fill="url(#paint4_linear_748_19766)"></path><path d="M52.1028 32.4935C53.1928 32.4935 54.0765 31.6563 54.0765 30.6236C54.0765 29.5908 53.1928 28.7537 52.1028 28.7537C51.0127 28.7537 50.129 29.5908 50.129 30.6236C50.129 31.6563 51.0127 32.4935 52.1028 32.4935Z" fill="url(#paint5_linear_748_19766)"></path><path d="M128.376 16.4C129.466 16.4 130.349 15.5628 130.349 14.5301C130.349 13.4973 129.466 12.6602 128.376 12.6602C127.286 12.6602 126.402 13.4973 126.402 14.5301C126.402 15.5628 127.286 16.4 128.376 16.4Z" fill="url(#paint6_linear_748_19766)"></path><path d="M143.309 87.4104C143.125 85.8931 142.498 84.5443 141.473 83.3794C140.968 82.8123 140.371 82.3678 139.759 81.908C138.29 80.8045 137.51 79.3331 137.433 77.5245C137.418 76.988 137.449 76.4362 137.403 75.8998C137.234 74.0605 136.454 72.4665 135.092 71.179C133.241 69.4318 131.022 68.7574 128.467 69.0486C127.978 69.1099 127.488 69.1865 126.998 69.1865C125.361 69.1405 123.969 68.5428 122.821 67.3779C122.408 66.9488 121.98 66.5349 121.49 66.1824C119.654 64.8949 117.635 64.4658 115.431 64.8336C113.871 65.0942 112.524 65.7839 111.392 66.8568C110.964 67.2706 110.612 67.7458 110.245 68.2056C109.036 69.6923 107.445 70.428 105.501 70.4127C104.752 70.4127 104.002 70.382 103.252 70.5353C100.575 71.1024 98.6774 72.6198 97.5605 75.0415C97.0556 76.145 96.872 77.3099 96.9791 78.5207C97.025 78.9805 97.1168 79.425 97.1474 79.8848C97.2851 81.4329 96.8414 82.8123 95.8316 84.0078C95.4949 84.4063 95.0818 84.7282 94.7146 85.1114C93.4294 86.4295 92.7562 88.0235 92.5879 90.0467C92.6032 90.3379 92.6032 90.8437 92.6797 91.3342C92.8633 92.6983 93.3988 93.9245 94.2709 95.0127C94.8064 95.6871 95.4796 96.2082 96.1682 96.714C97.79 97.9095 98.555 99.5189 98.5397 101.481C98.5397 102.017 98.5091 102.554 98.6009 103.075C99.1058 106.094 100.85 108.148 103.788 109.236C104.675 109.558 105.593 109.711 106.542 109.665C107.139 109.635 107.735 109.543 108.332 109.497C109.893 109.359 111.3 109.773 112.524 110.723C112.907 111.014 113.228 111.397 113.595 111.735C115.431 113.451 117.619 114.172 120.129 113.896C121.674 113.727 123.02 113.114 124.214 112.148C124.78 111.689 125.224 111.121 125.667 110.554C126.891 109.006 128.513 108.209 130.548 108.24C131.16 108.255 131.757 108.271 132.354 108.179C134.939 107.765 136.867 106.447 138.107 104.224C138.917 102.799 139.193 101.251 138.948 99.6261C138.826 98.8598 138.734 98.1088 138.872 97.3424C139.07 96.2389 139.53 95.2733 140.295 94.4456C140.631 94.0777 141.029 93.7712 141.366 93.4033C142.926 91.702 143.569 89.6942 143.309 87.4104Z" fill="#FFD55D"></path><path d="M47.0848 87.4718C46.9777 86.5368 46.5799 85.6938 45.9526 84.9734C45.6465 84.6209 45.264 84.345 44.8968 84.0691C43.9788 83.3794 43.5045 82.4751 43.4586 81.3562C43.4433 81.019 43.4739 80.6818 43.4433 80.36C43.3362 79.2258 42.8619 78.2448 42.0204 77.4478C40.8728 76.3749 39.5111 75.9458 37.9351 76.1297C37.6291 76.1603 37.3231 76.2217 37.0171 76.2063C36.0073 76.1757 35.1352 75.8078 34.4314 75.0875C34.1712 74.8269 33.9111 74.5663 33.6051 74.3518C32.4729 73.5547 31.2183 73.2942 29.8565 73.5241C28.8926 73.6927 28.0664 74.1065 27.3626 74.7656C27.0872 75.0261 26.873 75.3174 26.6434 75.5932C25.8937 76.5129 24.9145 76.9574 23.7058 76.9574C23.2468 76.9574 22.7724 76.942 22.3134 77.034C20.661 77.3865 19.4829 78.3215 18.7943 79.8235C18.4883 80.4979 18.3659 81.2336 18.4271 81.9693C18.4577 82.2452 18.5036 82.5364 18.5342 82.8123C18.6107 83.7626 18.3506 84.6209 17.7233 85.3566C17.5091 85.6018 17.2643 85.8011 17.0348 86.031C16.2392 86.8433 15.8261 87.8243 15.719 89.0811C15.7343 89.265 15.7343 89.5716 15.7802 89.8781C15.8873 90.7211 16.2239 91.4721 16.7594 92.1465C17.096 92.5603 17.5091 92.8822 17.9375 93.2041C18.932 93.9398 19.4217 94.9361 19.4064 96.1469C19.4064 96.4688 19.3911 96.806 19.4523 97.1278C19.7583 98.9977 20.8446 100.255 22.6653 100.944C23.2162 101.144 23.7823 101.235 24.3637 101.205C24.7309 101.19 25.0981 101.128 25.4653 101.098C26.4292 101.021 27.3014 101.266 28.0511 101.864C28.2959 102.048 28.4948 102.278 28.709 102.492C29.8412 103.55 31.1877 103.994 32.7483 103.826C33.6969 103.718 34.5385 103.351 35.2729 102.753C35.6248 102.462 35.9002 102.124 36.1756 101.772C36.9406 100.822 37.9351 100.331 39.1898 100.347C39.557 100.347 39.9395 100.362 40.3067 100.301C41.8979 100.04 43.0914 99.2276 43.8717 97.8635C44.3766 96.9746 44.5449 96.0243 44.3919 95.028C44.3154 94.5529 44.2695 94.0931 44.346 93.6179C44.4684 92.9435 44.7438 92.3304 45.2334 91.8247C45.4476 91.5947 45.6924 91.4108 45.8913 91.1809C46.84 90.1233 47.2378 88.8818 47.0848 87.4718Z" stroke="white" stroke-width="1.32471" stroke-miterlimit="10" stroke-linecap="round" stroke-linejoin="round" stroke-dasharray="2.24 4.49"></path><path d="M26.8571 88.6519H35.0275" stroke="white" stroke-width="1.07215" stroke-miterlimit="10" stroke-linecap="round" stroke-linejoin="round"></path><path d="M30.9431 84.5596V92.7442" stroke="white" stroke-width="1.07215" stroke-miterlimit="10" stroke-linecap="round" stroke-linejoin="round"></path><path d="M82.9179 87.4718C82.8108 86.5368 82.4129 85.6938 81.7856 84.9734C81.4796 84.6209 81.0971 84.345 80.7299 84.0691C79.8119 83.3794 79.3376 82.4751 79.2917 81.3562C79.2764 81.019 79.307 80.6818 79.2764 80.36C79.1693 79.2258 78.6949 78.2448 77.8534 77.4478C76.7059 76.3749 75.3442 75.9458 73.7682 76.1297C73.4622 76.1603 73.1562 76.2217 72.8502 76.2063C71.8404 76.1757 70.9682 75.8078 70.2644 75.0875C70.0043 74.8269 69.7442 74.5663 69.4382 74.3518C68.306 73.5547 67.0513 73.2942 65.6896 73.5241C64.7257 73.6927 63.8995 74.1065 63.1956 74.7656C62.9202 75.0261 62.706 75.3174 62.4765 75.5932C61.7268 76.5129 60.7476 76.9574 59.5388 76.9574C59.0798 76.9574 58.6055 76.942 58.1465 77.034C56.4941 77.3865 55.3159 78.3215 54.6274 79.8235C54.3214 80.4979 54.199 81.2336 54.2602 81.9693C54.2908 82.2452 54.3367 82.5364 54.3673 82.8123C54.4438 83.7626 54.1837 84.6209 53.5564 85.3566C53.3422 85.6018 53.0974 85.8011 52.8679 86.031C52.0723 86.8433 51.6591 87.8243 51.552 89.0811C51.5673 89.265 51.5673 89.5716 51.6132 89.8781C51.7203 90.7211 52.057 91.4721 52.5925 92.1465C52.9291 92.5603 53.3422 92.8822 53.7706 93.2041C54.7651 93.9398 55.2547 94.9361 55.2394 96.1469C55.2394 96.4688 55.2241 96.806 55.2853 97.1278C55.5913 98.9977 56.6777 100.255 58.4984 100.944C59.0492 101.144 59.6153 101.235 60.1968 101.205C60.564 101.19 60.9312 101.128 61.2984 101.098C62.2623 101.021 63.1344 101.266 63.8842 101.864C64.129 102.048 64.3279 102.278 64.5421 102.492C65.6743 103.55 67.0207 103.994 68.5814 103.826C69.53 103.718 70.3715 103.351 71.1059 102.753C71.4579 102.462 71.7333 102.124 72.0087 101.772C72.7737 100.822 73.7682 100.331 75.0229 100.347C75.3901 100.347 75.7726 100.362 76.1398 100.301C77.731 100.04 78.9244 99.2276 79.7048 97.8635C80.2097 96.9746 80.378 96.0243 80.225 95.028C80.1485 94.5529 80.1026 94.0931 80.1791 93.6179C80.3015 92.9435 80.5769 92.3304 81.0665 91.8247C81.2807 91.5947 81.5255 91.4108 81.7244 91.1809C82.673 90.1233 83.0862 88.8818 82.9179 87.4718Z" stroke="white" stroke-width="1.32471" stroke-miterlimit="10" stroke-linecap="round" stroke-linejoin="round" stroke-dasharray="2.24 4.49"></path><path d="M63.1805 88.6519H71.351" stroke="white" stroke-width="1.07215" stroke-miterlimit="10" stroke-linecap="round" stroke-linejoin="round"></path><path d="M67.2658 84.5596V92.7442" stroke="white" stroke-width="1.07215" stroke-miterlimit="10" stroke-linecap="round" stroke-linejoin="round"></path><path d="M175.485 87.4718C175.378 86.5368 174.98 85.6938 174.353 84.9734C174.047 84.6209 173.665 84.345 173.297 84.0691C172.379 83.3794 171.905 82.4751 171.859 81.3562C171.844 81.019 171.875 80.6818 171.844 80.36C171.737 79.2258 171.263 78.2448 170.421 77.4478C169.273 76.3749 167.912 75.9458 166.336 76.1297C166.03 76.1603 165.724 76.2217 165.418 76.2063C164.408 76.1757 163.536 75.8078 162.832 75.0875C162.572 74.8269 162.312 74.5663 162.006 74.3518C160.874 73.5547 159.619 73.2942 158.257 73.5241C157.293 73.6927 156.467 74.1065 155.763 74.7656C155.488 75.0261 155.274 75.3174 155.044 75.5932C154.294 76.5129 153.315 76.9574 152.106 76.9574C151.647 76.9574 151.173 76.942 150.714 77.034C149.062 77.3865 147.883 78.3215 147.195 79.8235C146.889 80.4979 146.767 81.2336 146.828 81.9693C146.858 82.2452 146.904 82.5364 146.935 82.8123C147.011 83.7626 146.751 84.6209 146.124 85.3566C145.91 85.6018 145.665 85.8011 145.435 86.031C144.64 86.8433 144.227 87.8243 144.12 89.0811C144.135 89.265 144.135 89.5716 144.181 89.8781C144.288 90.7211 144.625 91.4721 145.16 92.1465C145.497 92.5603 145.91 92.8822 146.338 93.2041C147.333 93.9398 147.822 94.9361 147.807 96.1469C147.807 96.4688 147.792 96.806 147.853 97.1278C148.159 98.9977 149.245 100.255 151.066 100.944C151.617 101.144 152.183 101.235 152.764 101.205C153.132 101.19 153.499 101.128 153.866 101.098C154.83 101.021 155.702 101.266 156.452 101.864C156.697 102.048 156.895 102.278 157.11 102.492C158.242 103.55 159.588 103.994 161.149 103.826C162.098 103.718 162.939 103.351 163.674 102.753C164.025 102.462 164.301 102.124 164.576 101.772C165.341 100.822 166.336 100.331 167.59 100.347C167.958 100.347 168.34 100.362 168.707 100.301C170.299 100.04 171.492 99.2276 172.272 97.8635C172.777 96.9746 172.946 96.0243 172.793 95.028C172.716 94.5529 172.67 94.0931 172.747 93.6179C172.869 92.9435 173.144 92.3304 173.634 91.8247C173.848 91.5947 174.093 91.4108 174.292 91.1809C175.256 90.1233 175.654 88.8818 175.485 87.4718Z" stroke="white" stroke-width="1.32471" stroke-miterlimit="10" stroke-linecap="round" stroke-linejoin="round" stroke-dasharray="2.24 4.49"></path><path d="M155.748 88.6519H163.918" stroke="white" stroke-width="1.07215" stroke-miterlimit="10" stroke-linecap="round" stroke-linejoin="round"></path><path d="M159.833 84.5596V92.7442" stroke="white" stroke-width="1.07215" stroke-miterlimit="10" stroke-linecap="round" stroke-linejoin="round"></path><mask id="mask1_748_19766" maskUnits="userSpaceOnUse" x="115" y="57" width="14" height="14" style="mask-type: alpha;"><path d="M115.524 66.6574C115.524 66.6574 118.935 63.5613 125.561 57.5837C127.244 66.5348 128.055 70.7957 128.055 70.7957L115.524 66.6574Z" fill="#FE614F"></path></mask><g mask="url(#mask1_748_19766)"><path d="M115.524 66.6574C115.524 66.6574 118.935 63.5613 125.561 57.5837C127.244 66.5348 128.055 70.7957 128.055 70.7957L115.524 66.6574Z" fill="#FE614F"></path><path d="M79.2463 64.4809L79.0168 63.8985L139.239 56.9553L139.484 57.5378L79.2463 64.4809Z" fill="url(#paint7_linear_748_19766)"></path><path d="M87.2634 66.1211L87.0339 65.5386L147.256 58.5955L147.486 59.1932L87.2634 66.1211Z" fill="url(#paint8_linear_748_19766)"></path><path d="M95.2803 67.7763L95.0355 67.1786L155.258 60.2507L155.503 60.8332L95.2803 67.7763Z" fill="url(#paint9_linear_748_19766)"></path><path d="M80.5007 72.0373L80.2711 71.4549L140.494 64.5117L140.723 65.1095L80.5007 72.0373Z" fill="url(#paint10_linear_748_19766)"></path><path d="M88.5179 73.6926L88.2731 73.0948L148.511 66.167L148.74 66.7494L88.5179 73.6926Z" fill="url(#paint11_linear_748_19766)"></path><path d="M118.996 71.1327L118.874 70.5503L132.491 70.8415L132.613 71.4393L118.996 71.1327Z" fill="url(#paint12_linear_748_19766)"></path></g><path d="M23.6441 119.781C23.6441 119.781 26.0921 115.873 30.8352 108.317C34.8899 116.471 36.8177 120.348 36.8177 120.348C36.8177 120.364 23.6441 119.781 23.6441 119.781Z" fill="#FFC95D"></path><mask id="mask2_748_19766" maskUnits="userSpaceOnUse" x="23" y="108" width="14" height="13" style="mask-type: alpha;"><path d="M23.644 119.781C23.644 119.781 26.0921 115.873 30.8352 108.317C34.8898 116.471 36.8177 120.348 36.8177 120.348C36.8177 120.364 23.644 119.781 23.644 119.781Z" fill="#FFC95D"></path></mask><g mask="url(#mask2_748_19766)"><path d="M-11.8681 127.537L-12.2506 127.031L43.8407 104.01L44.2232 104.5L-11.8681 127.537Z" fill="url(#paint13_linear_748_19766)"></path><path d="M-3.713 126.939L-4.09551 126.449L51.9958 103.412L52.3783 103.918L-3.713 126.939Z" fill="url(#paint14_linear_748_19766)"></path><path d="M4.44209 126.357L4.05958 125.851L60.1509 102.814L60.5487 103.32L4.44209 126.357Z" fill="url(#paint15_linear_748_19766)"></path><path d="M-8.60904 134.48L-9.00685 133.974L47.0997 110.938L47.4822 111.443L-8.60904 134.48Z" fill="url(#paint16_linear_748_19766)"></path><path d="M-0.454412 133.882L-0.836922 133.376L55.2543 110.355L55.6369 110.845L-0.454412 133.882Z" fill="url(#paint17_linear_748_19766)"></path><path d="M28.1876 123.153L27.9275 122.617L41.1011 119.214L41.3765 119.751L28.1876 123.153Z" fill="url(#paint18_linear_748_19766)"></path></g><path d="M56.173 119.781C56.173 119.781 58.621 115.873 63.3642 108.317C67.4188 116.471 69.3466 120.348 69.3466 120.348C69.3466 120.364 56.173 119.781 56.173 119.781Z" fill="#FFC95D"></path><mask id="mask3_748_19766" maskUnits="userSpaceOnUse" x="56" y="108" width="14" height="13" style="mask-type: alpha;"><path d="M56.1732 119.781C56.1732 119.781 58.6212 115.873 63.3643 108.317C67.4189 116.471 69.3468 120.348 69.3468 120.348C69.3468 120.364 56.1732 119.781 56.1732 119.781Z" fill="#FFC95D"></path></mask><g mask="url(#mask3_748_19766)"><path d="M20.6756 127.537L20.2931 127.031L76.3844 104.01L76.7669 104.5L20.6756 127.537Z" fill="url(#paint19_linear_748_19766)"></path><path d="M28.831 126.939L28.4485 126.449L84.5398 103.412L84.9223 103.918L28.831 126.939Z" fill="url(#paint20_linear_748_19766)"></path><path d="M36.9861 126.357L36.6036 125.851L92.6949 102.814L93.0774 103.32L36.9861 126.357Z" fill="url(#paint21_linear_748_19766)"></path><path d="M23.9197 134.48L23.5372 133.974L79.6285 110.938L80.011 111.443L23.9197 134.48Z" fill="url(#paint22_linear_748_19766)"></path><path d="M32.0901 133.882L31.6923 133.376L87.7836 110.355L88.1814 110.845L32.0901 133.882Z" fill="url(#paint23_linear_748_19766)"></path><path d="M60.7325 123.153L60.457 122.617L73.646 119.214L73.9214 119.751L60.7325 123.153Z" fill="url(#paint24_linear_748_19766)"></path></g><path d="M147.639 119.521C147.639 119.521 150.087 115.612 154.83 108.056C158.885 116.21 160.813 120.088 160.813 120.088C160.813 120.103 147.639 119.521 147.639 119.521Z" fill="#FFC95D"></path><mask id="mask4_748_19766" maskUnits="userSpaceOnUse" x="147" y="108" width="14" height="13" style="mask-type: alpha;"><path d="M147.639 119.521C147.639 119.521 150.087 115.612 154.83 108.056C158.885 116.21 160.813 120.088 160.813 120.088C160.813 120.103 147.639 119.521 147.639 119.521Z" fill="#FFC95D"></path></mask><g mask="url(#mask4_748_19766)"><path d="M112.204 127.537L111.821 127.031L167.912 104.01L168.295 104.5L112.204 127.537Z" fill="url(#paint25_linear_748_19766)"></path><path d="M120.359 126.939L119.976 126.449L176.067 103.412L176.45 103.918L120.359 126.939Z" fill="url(#paint26_linear_748_19766)"></path><path d="M128.514 126.357L128.131 125.851L184.222 102.814L184.605 103.32L128.514 126.357Z" fill="url(#paint27_linear_748_19766)"></path><path d="M115.462 134.48L115.064 133.974L171.156 110.938L171.554 111.444L115.462 134.48Z" fill="url(#paint28_linear_748_19766)"></path><path d="M123.618 133.882L123.22 133.377L179.326 110.355L179.709 110.846L123.618 133.882Z" fill="url(#paint29_linear_748_19766)"></path><path d="M152.26 123.153L151.984 122.617L165.173 119.214L165.449 119.751L152.26 123.153Z" fill="url(#paint30_linear_748_19766)"></path></g><path d="M91.18 81.8928V91.0431" stroke="#FE614F" stroke-width="3.32165" stroke-miterlimit="10" stroke-linecap="round" stroke-linejoin="round"></path><path d="M108.974 112.286H73.4156V94.3842C73.4156 91.9778 75.3587 90.0466 77.7456 90.0466H104.628C107.031 90.0466 108.958 91.9932 108.958 94.3842V112.286H108.974Z" fill="url(#paint31_linear_748_19766)"></path><path d="M70.5705 98.2773V109.987" stroke="#FE614F" stroke-width="3.52105" stroke-miterlimit="10" stroke-linecap="round" stroke-linejoin="round"></path><path d="M80.6529 98.2773V109.987" stroke="#FE614F" stroke-width="3.52105" stroke-miterlimit="10" stroke-linecap="round" stroke-linejoin="round"></path><path d="M90.7205 98.2773V109.987" stroke="#FE614F" stroke-width="3.52105" stroke-miterlimit="10" stroke-linecap="round" stroke-linejoin="round"></path><path d="M100.804 98.2773V109.987" stroke="#FE614F" stroke-width="3.52105" stroke-miterlimit="10" stroke-linecap="round" stroke-linejoin="round"></path><path d="M110.887 98.2773V109.987" stroke="#FE614F" stroke-width="3.52105" stroke-miterlimit="10" stroke-linecap="round" stroke-linejoin="round"></path><path d="M115.538 130.188H66.837V109.359C66.837 106.952 68.7802 105.021 71.167 105.021H111.178C113.58 105.021 115.508 106.968 115.508 109.359V130.188H115.538Z" fill="url(#paint32_linear_748_19766)"></path><path d="M177.031 119.444H16.1932V163.77H177.031V119.444Z" fill="url(#paint33_linear_748_19766)"></path></g><path d="M156.207 16.6911L146.919 24.9984L143.293 21.2892L152.581 12.9819L156.207 16.6911Z" fill="#FFF16C"></path><path d="M149.215 20.1857L139.927 28.5083L136.316 24.7839L145.604 16.4766L149.215 20.1857Z" fill="#FFE200"></path><path d="M149.214 20.1855C148.449 21.7949 147.684 23.3889 146.919 24.9983L145.496 23.6035C146.736 22.4693 147.975 21.3198 149.214 20.1855Z" fill="#FFB53C"></path><path d="M20.9816 67.1174L9.30735 64.895L10.3172 60.1436L21.9914 62.366L20.9816 67.1174Z" fill="#FFF16C"></path><path d="M14.4028 63.8987L2.72857 61.6763L3.7384 56.9402L15.4126 59.1626L14.4028 63.8987Z" fill="#FFE200"></path><path d="M14.4024 63.8987C12.704 64.2359 11.0057 64.5577 9.30735 64.8949L9.65926 63.0557C11.2352 63.3469 12.8264 63.6228 14.4024 63.8987Z" fill="#FFB53C"></path><path d="M180.427 71.7614L168.569 72.8496L168.08 68.0216L179.937 66.9333L180.427 71.7614Z" fill="#A0E1C5"></path><path d="M173.144 70.5048L161.271 71.593L160.782 66.7497L172.655 65.6768L173.144 70.5048Z" fill="#A0E1C5"></path><path d="M173.144 70.5046C171.614 71.2863 170.099 72.068 168.569 72.8497L168.339 70.9951C169.946 70.8265 171.537 70.6732 173.144 70.5046Z" fill="#11C78F"></path><ellipse cx="124.832" cy="87.1251" rx="2.04642" ry="3.075" fill="#616161"></ellipse><ellipse cx="111.189" cy="87.1251" rx="2.04642" ry="3.075" fill="#616161"></ellipse><defs><linearGradient id="paint0_linear_748_19766" x1="12.0597" y1="61.6407" x2="179.874" y2="61.6407" gradientUnits="userSpaceOnUse"><stop stop-color="#22CB97"></stop><stop offset="1" stop-color="#53E3AC"></stop></linearGradient><linearGradient id="paint1_linear_748_19766" x1="101.87" y1="32.4962" x2="105.809" y2="32.4962" gradientUnits="userSpaceOnUse"><stop stop-color="#E7E3E1"></stop><stop offset="0.0658" stop-color="#E5E5E3"></stop><stop offset="0.5016" stop-color="#F2F1ED"></stop></linearGradient><linearGradient id="paint2_linear_748_19766" x1="67.3087" y1="63.6792" x2="71.2484" y2="63.6792" gradientUnits="userSpaceOnUse"><stop stop-color="#E7E3E1"></stop><stop offset="0.0658" stop-color="#E5E5E3"></stop><stop offset="0.5016" stop-color="#F2F1ED"></stop></linearGradient><linearGradient id="paint3_linear_748_19766" x1="142.592" y1="62.5364" x2="146.532" y2="62.5364" gradientUnits="userSpaceOnUse"><stop stop-color="#E7E3E1"></stop><stop offset="0.0658" stop-color="#E5E5E3"></stop><stop offset="0.5016" stop-color="#F2F1ED"></stop></linearGradient><linearGradient id="paint4_linear_748_19766" x1="23.3478" y1="48.7355" x2="27.2875" y2="48.7355" gradientUnits="userSpaceOnUse"><stop stop-color="#E7E3E1"></stop><stop offset="0.0658" stop-color="#E5E5E3"></stop><stop offset="0.5016" stop-color="#F2F1ED"></stop></linearGradient><linearGradient id="paint5_linear_748_19766" x1="50.1273" y1="30.6203" x2="54.067" y2="30.6203" gradientUnits="userSpaceOnUse"><stop stop-color="#E7E3E1"></stop><stop offset="0.0658" stop-color="#E5E5E3"></stop><stop offset="0.5016" stop-color="#F2F1ED"></stop></linearGradient><linearGradient id="paint6_linear_748_19766" x1="126.407" y1="14.535" x2="130.346" y2="14.535" gradientUnits="userSpaceOnUse"><stop stop-color="#E7E3E1"></stop><stop offset="0.0658" stop-color="#E5E5E3"></stop><stop offset="0.5016" stop-color="#F2F1ED"></stop></linearGradient><linearGradient id="paint7_linear_748_19766" x1="108.273" y1="56.7551" x2="110.214" y2="64.7018" gradientUnits="userSpaceOnUse"><stop stop-color="#E5E5E3"></stop><stop offset="0.2005" stop-color="#F2F1ED"></stop></linearGradient><linearGradient id="paint8_linear_748_19766" x1="116.285" y1="58.4006" x2="118.226" y2="66.3473" gradientUnits="userSpaceOnUse"><stop stop-color="#E5E5E3"></stop><stop offset="0.2005" stop-color="#F2F1ED"></stop></linearGradient><linearGradient id="paint9_linear_748_19766" x1="124.296" y1="60.0462" x2="126.237" y2="67.993" gradientUnits="userSpaceOnUse"><stop stop-color="#E5E5E3"></stop><stop offset="0.2005" stop-color="#F2F1ED"></stop></linearGradient><linearGradient id="paint10_linear_748_19766" x1="109.525" y1="64.3152" x2="111.466" y2="72.262" gradientUnits="userSpaceOnUse"><stop stop-color="#E5E5E3"></stop><stop offset="0.2005" stop-color="#F2F1ED"></stop></linearGradient><linearGradient id="paint11_linear_748_19766" x1="117.536" y1="65.9607" x2="119.477" y2="73.9075" gradientUnits="userSpaceOnUse"><stop stop-color="#E5E5E3"></stop><stop offset="0.2005" stop-color="#F2F1ED"></stop></linearGradient><linearGradient id="paint12_linear_748_19766" x1="125.684" y1="70.0436" x2="125.817" y2="71.9082" gradientUnits="userSpaceOnUse"><stop stop-color="#E5E5E3"></stop><stop offset="0.2005" stop-color="#F2F1ED"></stop></linearGradient><linearGradient id="paint13_linear_748_19766" x1="13.999" y1="112.213" x2="18.0232" y2="119.332" gradientUnits="userSpaceOnUse"><stop stop-color="#E5E5E3"></stop><stop offset="0.2005" stop-color="#F2F1ED"></stop></linearGradient><linearGradient id="paint14_linear_748_19766" x1="22.1554" y1="111.621" x2="26.1796" y2="118.74" gradientUnits="userSpaceOnUse"><stop stop-color="#E5E5E3"></stop><stop offset="0.2005" stop-color="#F2F1ED"></stop></linearGradient><linearGradient id="paint15_linear_748_19766" x1="30.3125" y1="111.029" x2="34.3367" y2="118.148" gradientUnits="userSpaceOnUse"><stop stop-color="#E5E5E3"></stop><stop offset="0.2005" stop-color="#F2F1ED"></stop></linearGradient><linearGradient id="paint16_linear_748_19766" x1="17.2496" y1="119.15" x2="21.2738" y2="126.269" gradientUnits="userSpaceOnUse"><stop stop-color="#E5E5E3"></stop><stop offset="0.2005" stop-color="#F2F1ED"></stop></linearGradient><linearGradient id="paint17_linear_748_19766" x1="25.4057" y1="118.558" x2="29.4299" y2="125.677" gradientUnits="userSpaceOnUse"><stop stop-color="#E5E5E3"></stop><stop offset="0.2005" stop-color="#F2F1ED"></stop></linearGradient><linearGradient id="paint18_linear_748_19766" x1="34.3543" y1="120.305" x2="34.9884" y2="122.063" gradientUnits="userSpaceOnUse"><stop stop-color="#E5E5E3"></stop><stop offset="0.2005" stop-color="#F2F1ED"></stop></linearGradient><linearGradient id="paint19_linear_748_19766" x1="46.5372" y1="112.212" x2="50.5614" y2="119.332" gradientUnits="userSpaceOnUse"><stop stop-color="#E5E5E3"></stop><stop offset="0.2005" stop-color="#F2F1ED"></stop></linearGradient><linearGradient id="paint20_linear_748_19766" x1="54.694" y1="111.621" x2="58.7182" y2="118.74" gradientUnits="userSpaceOnUse"><stop stop-color="#E5E5E3"></stop><stop offset="0.2005" stop-color="#F2F1ED"></stop></linearGradient><linearGradient id="paint21_linear_748_19766" x1="62.8511" y1="111.028" x2="66.8753" y2="118.147" gradientUnits="userSpaceOnUse"><stop stop-color="#E5E5E3"></stop><stop offset="0.2005" stop-color="#F2F1ED"></stop></linearGradient><linearGradient id="paint22_linear_748_19766" x1="49.7882" y1="119.149" x2="53.8124" y2="126.268" gradientUnits="userSpaceOnUse"><stop stop-color="#E5E5E3"></stop><stop offset="0.2005" stop-color="#F2F1ED"></stop></linearGradient><linearGradient id="paint23_linear_748_19766" x1="57.9446" y1="118.557" x2="61.9689" y2="125.676" gradientUnits="userSpaceOnUse"><stop stop-color="#E5E5E3"></stop><stop offset="0.2005" stop-color="#F2F1ED"></stop></linearGradient><linearGradient id="paint24_linear_748_19766" x1="66.8926" y1="120.306" x2="67.5268" y2="122.064" gradientUnits="userSpaceOnUse"><stop stop-color="#E5E5E3"></stop><stop offset="0.2005" stop-color="#F2F1ED"></stop></linearGradient><linearGradient id="paint25_linear_748_19766" x1="138.066" y1="112.212" x2="142.09" y2="119.331" gradientUnits="userSpaceOnUse"><stop stop-color="#E5E5E3"></stop><stop offset="0.2005" stop-color="#F2F1ED"></stop></linearGradient><linearGradient id="paint26_linear_748_19766" x1="146.223" y1="111.62" x2="150.247" y2="118.739" gradientUnits="userSpaceOnUse"><stop stop-color="#E5E5E3"></stop><stop offset="0.2005" stop-color="#F2F1ED"></stop></linearGradient><linearGradient id="paint27_linear_748_19766" x1="154.379" y1="111.028" x2="158.404" y2="118.147" gradientUnits="userSpaceOnUse"><stop stop-color="#E5E5E3"></stop><stop offset="0.2005" stop-color="#F2F1ED"></stop></linearGradient><linearGradient id="paint28_linear_748_19766" x1="141.316" y1="119.149" x2="145.34" y2="126.268" gradientUnits="userSpaceOnUse"><stop stop-color="#E5E5E3"></stop><stop offset="0.2005" stop-color="#F2F1ED"></stop></linearGradient><linearGradient id="paint29_linear_748_19766" x1="149.474" y1="118.557" x2="153.498" y2="125.676" gradientUnits="userSpaceOnUse"><stop stop-color="#E5E5E3"></stop><stop offset="0.2005" stop-color="#F2F1ED"></stop></linearGradient><linearGradient id="paint30_linear_748_19766" x1="158.418" y1="120.307" x2="159.052" y2="122.065" gradientUnits="userSpaceOnUse"><stop stop-color="#E5E5E3"></stop><stop offset="0.2005" stop-color="#F2F1ED"></stop></linearGradient><linearGradient id="paint31_linear_748_19766" x1="99.7555" y1="117.616" x2="81.9945" y2="86.9066" gradientUnits="userSpaceOnUse"><stop stop-color="#E7E3E1"></stop><stop offset="0.0651" stop-color="#E5E5E3"></stop><stop offset="0.7259" stop-color="white"></stop><stop offset="0.7661" stop-color="#FEFEFE"></stop></linearGradient><linearGradient id="paint32_linear_748_19766" x1="102.029" y1="138.001" x2="79.7106" y2="99.4123" gradientUnits="userSpaceOnUse"><stop stop-color="#E7E3E1"></stop><stop offset="0.0658" stop-color="#E5E5E3"></stop><stop offset="0.6913" stop-color="white"></stop></linearGradient><linearGradient id="paint33_linear_748_19766" x1="16.1963" y1="141.607" x2="177.041" y2="141.607" gradientUnits="userSpaceOnUse"><stop stop-color="#E7E3E1"></stop><stop offset="0.0658" stop-color="#E5E5E3"></stop><stop offset="0.5016" stop-color="#F2F1ED"></stop></linearGradient></defs></svg>